<svg xmlns="http://www.w3.org/2000/svg" width="40" height="40" viewBox="-48.47 0 1004.56 1004.56">
    <defs>
        <linearGradient id="a" x1="421.88" y1="512.02" x2="907.62" y2="512.02" gradientUnits="userSpaceOnUse">
            <stop offset=".01" stop-color="#a36dae"/>
            <stop offset=".05" stop-color="#be6e99"/>
            <stop offset=".1" stop-color="#d47089"/>
            <stop offset=".15" stop-color="#e4717d"/>
            <stop offset=".21" stop-color="#ee7177"/>
            <stop offset=".29" stop-color="#f17275"/>
            <stop offset="1" stop-color="#09bac2"/>
        </linearGradient>
        <linearGradient id="b" x1="0" y1="448.72" x2="714.49" y2="448.72" gradientUnits="userSpaceOnUse">
            <stop offset="0" stop-color="#09bac2"/>
            <stop offset=".3" stop-color="#419dba"/>
            <stop offset=".62" stop-color="#7583b3"/>
            <stop offset=".86" stop-color="#9673af"/>
            <stop offset=".99" stop-color="#a36dae"/>
        </linearGradient>
        <linearGradient id="c" x1="0" y1="353.7" x2="907.62" y2="353.7" gradientUnits="userSpaceOnUse">
            <stop offset="0" stop-color="#f17275"/>
            <stop offset=".04" stop-color="#da7085"/>
            <stop offset=".1" stop-color="#c26e97"/>
            <stop offset=".16" stop-color="#b06da4"/>
            <stop offset=".22" stop-color="#a66dab"/>
            <stop offset=".3" stop-color="#a36dae"/>
            <stop offset=".33" stop-color="#aa73a5"/>
            <stop offset=".43" stop-color="#c58789"/>
            <stop offset=".54" stop-color="#da9773"/>
            <stop offset=".66" stop-color="#e8a364"/>
            <stop offset=".8" stop-color="#f1a95a"/>
            <stop offset="1" stop-color="#f4ac58"/>
        </linearGradient>
    </defs>
    <path d="m524.82 19.27 233.92 135.05c30.16 17.42 63.83 56.18 63.83 123.8 0 17.66-2.81 34.68-8.01 50.61h-2.91c-14.86-23.99-41.4-39.97-71.69-39.97-46.53 0-84.26 37.73-84.26 84.27s37.73 84.26 84.26 84.26h167.66V682.3c0 51.38-26.52 97.3-71.01 122.99L524.82 985.3c-44.5 25.69-97.53 25.69-142.03 0L71.01 805.29C26.52 779.59 0 733.67 0 682.29V322.27c0-51.38 26.52-97.3 71.01-122.99L382.79 19.27c44.5-25.69 97.53-25.69 142.03 0Z" style="fill:#27303d;fill-rule:evenodd"/>
    <path d="M492.57 346.68c-9.69 29.5-14.57 57.34-15.05 83.14-.86 45.83 11.98 86 35.97 118.18v.11c24.12 32.36 59.89 57.08 104.7 71.8 28.82 9.47 61.17 14.84 96.36 15.49l193.07 3.61v43.27c0 4.14-.17 8.23-.51 12.29l-193.43-3.58c-41.19-.77-79.02-7.04-112.71-18.11C545.1 654.52 499.96 623 468.86 581.3l-.06.04c-31.24-41.91-47.97-93.73-46.87-152.41.59-31.58 6.31-64.93 17.66-99.49l52.97 17.22Z" style="fill:url(#a)"/>
    <path d="M0 643.58h75.06c158.07.03 223.24-102.69 291.57-210.36 37.31-58.79 75.49-118.96 129.89-168.38 95.85-87.08 217.64-63.79 217.98-63.73l-9.59 54.93c-.27-.05-95.72-18.3-170.9 50-48.74 44.27-84.93 101.3-120.3 157.04-76.67 120.83-149.83 236.11-338.65 236.09H.97C.33 693.61 0 687.98 0 682.28v-38.71Z" style="fill:url(#b)"/>
    <path d="m0 550.4.95.02c133.86 5.08 213.55-106.13 293.6-217.84 44.03-61.44 88.16-123.04 142.84-169.41 28.94-24.54 63.54-41.93 99.44-51.55 38.5-10.31 78.9-11.74 115.85-3.53 38.22 8.49 72.75 27.23 98.02 57.03 15.37 18.13 27.19 40.15 34.16 66.21 3.86 14.44-4.72 29.29-19.17 33.14a27.011 27.011 0 0 1-14 0c-4.06-1.08-11.3-2-20.68-2.13-20.23-.29-48.09 3.02-73.07 15.41-23.18 11.5-44 31.47-52.98 65.02-3.05 11.38-4.84 24.15-5.04 38.43v.06l-.02 2.08h.1c0 36.42 13.85 65.32 33.48 85.09 19.27 19.4 43.68 30.1 65.56 30.41h1.02v-.09l207.55.21v53.99H700.06v-.1h-1.44l-.21-.01c-35.44-.5-73.95-16.8-103.26-46.3-28.94-29.14-49.36-71.1-49.36-123.2h.1v-.21l.02-2.46v-.1c.28-19.41 2.66-36.59 6.73-51.78 13.73-51.26 45.71-81.85 81.36-99.54 27.64-13.71 57.42-19.23 81.95-20.59-2.06-3.01-4.26-5.88-6.57-8.6-17.23-20.33-41.35-33.24-68.36-39.24-28.29-6.29-59.77-5.05-90.22 3.11-28.49 7.63-55.81 21.31-78.48 40.54-49.27 41.79-91.56 100.8-133.74 159.67C250.26 487.4 162.31 610.12 0 604.44V550.4Z" style="fill:url(#c)"/>
</svg>
